<?xml version="1.0" standalone="no"?>
<!DOCTYPE svg PUBLIC "-//W3C//DTD SVG 20010904//EN"
 "http://www.w3.org/TR/2001/REC-SVG-20010904/DTD/svg10.dtd">
<svg version="1.0" xmlns="http://www.w3.org/2000/svg"
 width="300.000000pt" height="300.000000pt" viewBox="0 0 300.000000 300.000000"
 preserveAspectRatio="xMidYMid meet">
<metadata>
Created by potrace 1.14, written by Peter Selinger 2001-2017
</metadata>
<g transform="translate(0.000000,300.000000) scale(0.100000,-0.100000)"
fill="#000000" stroke="none">
<path d="M0 1500 l0 -1500 1500 0 1500 0 0 1500 0 1500 -1500 0 -1500 0 0
-1500z m2758 669 c74 -138 130 -255 125 -259 -8 -7 -522 -190 -535 -190 -4 0
11 43 33 97 21 53 39 99 39 102 0 3 -26 18 -57 33 -171 80 -389 107 -486 59
-83 -40 -119 -138 -83 -224 22 -54 88 -101 269 -191 269 -134 368 -208 425
-314 107 -201 71 -459 -83 -600 -118 -108 -249 -152 -475 -159 -170 -6 -278 8
-418 51 -165 51 -183 55 -187 43 -3 -7 -19 -54 -38 -105 l-33 -93 -119 208
c-66 114 -132 228 -147 254 l-27 46 257 101 c141 56 265 104 274 108 15 5 12
-9 -17 -89 l-34 -95 47 -20 c235 -101 482 -130 598 -71 80 40 115 138 80 222
-24 58 -101 113 -305 217 -217 110 -290 162 -356 251 -56 76 -84 153 -92 249
-27 348 230 567 642 547 132 -7 227 -26 360 -73 55 -20 107 -36 115 -37 9 -1
26 29 50 91 19 50 37 92 40 92 3 0 65 -113 138 -251z m-1378 6 l0 -155 -325 0
-325 0 0 -235 0 -235 300 0 300 0 0 -150 0 -150 -300 0 -300 0 0 -355 0 -355
-190 0 -190 0 0 889 c0 488 3 891 7 895 3 3 235 6 515 6 l508 0 0 -155z"/>
</g>
</svg>
