<svg id="Help_Wheel" data-name="Help, Wheel" xmlns="http://www.w3.org/2000/svg" width="50.252" height="50.252" viewBox="0 0 50.252 50.252">
  <path id="Caminho_42429" data-name="Caminho 42429" d="M0,0H50.252V50.252H0Z" fill="none"/>
  <path id="Caminho_42430" data-name="Caminho 42430" d="M19.56,7.119a18.84,18.84,0,0,1,0,20.442" transform="translate(21.395 7.787)" fill="none" stroke="#fdbb11" stroke-linecap="round" stroke-linejoin="round" stroke-width="1.5"/>
  <path id="Caminho_42431" data-name="Caminho 42431" d="M24.916,10.06a10.5,10.5,0,1,1-14.856,0,10.5,10.5,0,0,1,14.856,0" transform="translate(7.638 7.638)" fill="none" stroke="#fdbb11" stroke-linecap="round" stroke-linejoin="round" stroke-width="1.5"/>
  <path id="Caminho_42432" data-name="Caminho 42432" d="M14.321,11.384l5.41-6.573a2.1,2.1,0,0,1,3.105-.151L25.5,7.326a2.1,2.1,0,0,1-.151,3.105l-6.573,5.41" transform="translate(15.665 4.426)" fill="none" stroke="#fdbb11" stroke-linecap="round" stroke-linejoin="round" stroke-width="1.5"/>
  <path id="Caminho_42433" data-name="Caminho 42433" d="M15.841,18.778l-5.41,6.573a2.1,2.1,0,0,1-3.105.151L4.66,22.836a2.1,2.1,0,0,1,.151-3.105l6.573-5.41" transform="translate(4.425 15.664)" fill="none" stroke="#fdbb11" stroke-linecap="round" stroke-linejoin="round" stroke-width="1.5"/>
  <path id="Caminho_42434" data-name="Caminho 42434" d="M11.385,15.841l-6.575-5.41A2.1,2.1,0,0,1,4.66,7.326L7.325,4.66a2.1,2.1,0,0,1,3.105.151l5.41,6.573" transform="translate(4.425 4.425)" fill="none" stroke="#fdbb11" stroke-linecap="round" stroke-linejoin="round" stroke-width="1.5"/>
  <path id="Caminho_42435" data-name="Caminho 42435" d="M18.778,14.321l6.573,5.41a2.1,2.1,0,0,1,.151,3.105L22.836,25.5a2.1,2.1,0,0,1-3.105-.151l-5.41-6.573" transform="translate(15.664 15.665)" fill="none" stroke="#fdbb11" stroke-linecap="round" stroke-linejoin="round" stroke-width="1.5"/>
  <path id="Caminho_42436" data-name="Caminho 42436" d="M27.561,19.562a18.84,18.84,0,0,1-20.442,0" transform="translate(7.787 21.395)" fill="none" stroke="#fdbb11" stroke-linecap="round" stroke-linejoin="round" stroke-width="1.5"/>
  <path id="Caminho_42437" data-name="Caminho 42437" d="M6.013,7.118a18.84,18.84,0,0,0,0,20.442" transform="translate(3.282 7.786)" fill="none" stroke="#fdbb11" stroke-linecap="round" stroke-linejoin="round" stroke-width="1.5"/>
  <path id="Caminho_42438" data-name="Caminho 42438" d="M27.56,6.015a18.84,18.84,0,0,0-20.442,0" transform="translate(7.786 3.282)" fill="none" stroke="#fdbb11" stroke-linecap="round" stroke-linejoin="round" stroke-width="1.5"/>
</svg>
