<svg id="users-circle" xmlns="http://www.w3.org/2000/svg" width="73.585" height="73.585" viewBox="0 0 73.585 73.585">
  <g id="Grupo_7917" data-name="Grupo 7917" transform="translate(9.198 12.264)">
    <path id="Caminho_43086" data-name="Caminho 43086" d="M3,26.264H3A12.265,12.265,0,0,1,15.264,14H27.528A12.265,12.265,0,0,1,39.792,26.264h0" transform="translate(-3 16.66)" fill="none" stroke="#fcca50" stroke-linecap="round" stroke-linejoin="round" stroke-width="3"/>
    <path id="Caminho_43087" data-name="Caminho 43087" d="M16,4.651a7.665,7.665,0,1,1,0,15.33" transform="translate(23.858 -2.655)" fill="none" stroke="#fcca50" stroke-linecap="round" stroke-linejoin="round" stroke-width="3"/>
    <path id="Caminho_43088" data-name="Caminho 43088" d="M23.4,7.054a10.428,10.428,0,1,1-14.747,0,10.428,10.428,0,0,1,14.747,0" transform="translate(2.37 -4)" fill="none" stroke="#fcca50" stroke-linecap="round" stroke-linejoin="round" stroke-width="3"/>
    <path id="Caminho_43089" data-name="Caminho 43089" d="M17,13A12.265,12.265,0,0,1,29.264,25.264h0" transform="translate(25.924 14.594)" fill="none" stroke="#fcca50" stroke-linecap="round" stroke-linejoin="round" stroke-width="3"/>
  </g>
  <path id="Caminho_43090" data-name="Caminho 43090" d="M0,0H73.585V73.585H0Z" fill="none"/>
</svg>
